<svg width="45" height="48" viewBox="0 0 45 48" fill="none" xmlns="http://www.w3.org/2000/svg">
<path d="M18 0.83401C18.2928 1.18985 18.4722 1.62533 18.515 2.08418C18.5578 2.54303 18.462 3.00417 18.24 3.40801C16.5056 6.59243 15.5998 10.1619 15.606 13.788C15.606 25.851 25.44 35.619 37.56 35.619C39.141 35.619 40.68 35.454 42.159 35.139C42.6124 35.0408 43.0846 35.0784 43.5168 35.247C43.949 35.4156 44.3219 35.7077 44.589 36.087C44.871 36.4814 45.0147 36.9578 44.9979 37.4423C44.9811 37.9268 44.8046 38.3922 44.496 38.766C42.1431 41.6563 39.1747 43.9851 35.8075 45.5826C32.4403 47.18 28.759 48.0059 25.032 48C11.202 48 0 36.858 0 23.13C0 12.798 6.342 3.93601 15.372 0.18001C15.8218 -0.0100939 16.3212 -0.049112 16.795 0.0688175C17.2689 0.186747 17.6918 0.455256 18 0.83401ZM14.574 3.93301C11.1018 5.7955 8.19911 8.56394 6.17439 11.9441C4.14968 15.3243 3.0786 19.1898 3.075 23.13C3.075 35.19 12.912 44.958 25.032 44.958C27.9343 44.963 30.8088 44.3924 33.4892 43.2791C36.1695 42.1657 38.6024 40.5319 40.647 38.472C39.636 38.598 38.607 38.661 37.56 38.661C23.73 38.661 12.531 27.519 12.531 13.791C12.531 10.29 13.257 6.95701 14.574 3.93301Z" fill="white"/>
</svg>
